<svg width="76" height="84" viewBox="0 0 76 84" fill="none" xmlns="http://www.w3.org/2000/svg">
<path d="M69.721 47.1755C69.4663 55.2466 66.6443 63.0263 61.6652 69.3837C56.6861 75.7411 49.8093 80.345 42.0343 82.5262C34.2593 84.7075 25.9913 84.3524 18.4319 81.5126C10.8725 78.6728 4.41576 73.4963 0 66.7355L0.0110016 66.7235L0.0590019 66.6995C0.0710019 66.6995 0.0710002 66.6875 0.0830002 66.6875C0.0950002 66.6635 0.107003 66.6635 0.119003 66.6515L12.211 58.7515L63.556 25.1875V25.1995C63.687 25.3905 63.806 25.5815 63.926 25.7845C64.213 26.2265 64.476 26.6845 64.738 27.1475C64.989 27.5775 65.228 28.0075 65.455 28.4475C65.802 29.0925 66.125 29.7615 66.411 30.4315C66.555 30.7295 66.6867 31.0295 66.806 31.3315C66.997 31.7735 67.164 32.2035 67.331 32.6575C67.463 32.9805 67.57 33.3145 67.678 33.6495C67.778 33.9005 67.857 34.1495 67.941 34.4135C68.263 35.4295 68.55 36.4575 68.789 37.5085C69.5215 40.6761 69.8349 43.9262 69.721 47.1755Z" fill="url(#paint0_linear_2_24)"/>
<g style="mix-blend-mode:multiply" opacity="0.16">
<g style="mix-blend-mode:multiply" opacity="0.16">
<path d="M68.789 37.5084L0 66.7354L63.556 25.1894C66.0161 28.9535 67.788 33.1246 68.789 37.5084Z" fill="black"/>
</g>
</g>
<path d="M75.7795 17.2074L75.7675 17.2195C75.7555 17.2195 75.7435 17.2434 75.7205 17.2434C75.706 17.2654 75.685 17.2822 75.6605 17.2914L63.5605 25.2014L12.2145 58.7534C12.0835 58.5534 11.9635 58.3594 11.8445 58.1534C6.59829 49.8418 4.80091 39.8116 6.83446 30.1954C7.10189 28.9253 7.43298 27.6694 7.82646 26.4324C7.83575 26.413 7.84377 26.3929 7.85046 26.3725C7.86088 26.315 7.87696 26.2587 7.89846 26.2045C10.0877 19.4757 14.1148 13.4932 19.5249 8.93264C24.935 4.37205 31.5126 1.41511 38.5147 0.395786C45.5168 -0.623533 52.6644 0.335392 59.1503 3.16425C65.6361 5.99311 71.2017 10.5791 75.2185 16.4044C75.2353 16.4235 75.251 16.4436 75.2655 16.4644C75.4455 16.7054 75.6145 16.9564 75.7795 17.2074Z" fill="url(#paint1_linear_2_24)"/>
<g style="mix-blend-mode:multiply" opacity="0.25">
<g style="mix-blend-mode:multiply" opacity="0.25">
<path d="M63.9256 25.7864C60.5436 28.1764 56.6126 30.8864 52.3706 33.7564C50.1706 35.2384 47.9146 36.7914 45.5846 38.3214C43.2546 39.8514 40.8996 41.4154 38.5466 42.9694C36.1686 44.5104 33.7906 46.0404 31.4466 47.5574C29.1046 49.0514 26.7866 50.5214 24.5526 51.9424C20.0596 54.7744 15.8526 57.3794 12.2086 59.5664C8.58864 61.7764 5.50864 63.5334 3.37864 64.7994C1.50264 65.8994 0.319641 66.5564 0.0566406 66.6994C0.0708391 66.6773 0.0919178 66.6604 0.116638 66.6514L63.5536 25.1894C63.6866 25.3804 63.8056 25.5834 63.9256 25.7864Z" fill="black"/>
</g>
</g>
<g style="mix-blend-mode:screen" opacity="0.7">
<g style="mix-blend-mode:screen" opacity="0.7">
<path d="M75.7197 17.2434C75.7053 17.2653 75.6843 17.2821 75.6598 17.2914L12.2137 58.7534C12.0827 58.5534 11.9628 58.3594 11.8438 58.1534C15.2257 55.7754 19.1687 53.0534 23.4097 50.1834C25.6097 48.7014 27.8787 47.1724 30.1967 45.6184C32.5147 44.0894 34.8807 42.5244 37.2347 40.9704C39.6127 39.4294 41.9907 37.8994 44.3347 36.3824C46.6787 34.8654 48.9948 33.4194 51.2288 31.9974C55.7098 29.1654 59.9287 26.5604 63.5717 24.3614C67.1927 22.1514 70.2717 20.4064 72.4027 19.1404C74.2737 18.0434 75.4567 17.3864 75.7197 17.2434Z" fill="white"/>
</g>
</g>
<g style="mix-blend-mode:screen" opacity="0.25">
<g style="mix-blend-mode:screen" opacity="0.25">
<path d="M64.9656 45.8603C64.974 48.1817 64.7337 50.4972 64.2486 52.7673C63.3642 57.0367 61.6454 61.0894 59.1907 64.6927C56.736 68.2961 53.5939 71.3792 49.9446 73.765C46.2953 76.1509 42.2107 77.7925 37.9253 78.5957C33.64 79.3988 29.2381 79.3478 24.9726 78.4453C17.9611 77.0049 11.6125 73.3125 6.89355 67.9303L7.24055 67.7033L64.9656 45.8603Z" fill="white"/>
</g>
</g>
<g style="mix-blend-mode:screen" opacity="0.25">
<g style="mix-blend-mode:screen" opacity="0.25">
<path d="M68.8849 16.0125L68.2039 16.4545L11.4229 31.6175C11.4469 31.4745 11.4699 31.3175 11.5059 31.1755C12.3932 26.9053 14.1148 22.8523 16.572 19.2489C19.0291 15.6455 22.1734 12.5626 25.8245 10.177C29.4757 7.79139 33.5619 6.15001 37.8487 5.34701C42.1356 4.544 46.5388 4.59517 50.8059 5.49755C57.8151 6.94369 64.162 10.6351 68.8849 16.0125Z" fill="white"/>
</g>
</g>
<g style="mix-blend-mode:multiply" opacity="0.16">
<g style="mix-blend-mode:multiply" opacity="0.16">
<path d="M69.721 47.1755C69.4663 55.2467 66.6443 63.0263 61.6652 69.3837C56.6861 75.7411 49.8093 80.345 42.0343 82.5263C34.2593 84.7075 25.9913 84.3524 18.4319 81.5127C10.8725 78.6729 4.41576 73.4964 0 66.7355C1.2086 68.3274 2.51337 69.8438 3.907 71.2765C6.70779 74.0676 9.90443 76.431 13.394 78.2905C16.85 80.1339 20.5703 81.4316 24.423 82.1375L27.315 82.5435C28.282 82.7115 29.262 82.6635 30.23 82.7345L31.688 82.7945L33.146 82.7235C34.1132 82.7017 35.0784 82.6256 36.037 82.4955L38.917 82.0535L41.737 81.3375C42.693 81.1375 43.589 80.7275 44.509 80.4375C45.4309 80.1323 46.3296 79.761 47.198 79.3265C48.9662 78.5232 50.6711 77.5872 52.298 76.5265L54.687 74.8415C55.44 74.2325 56.169 73.5875 56.91 72.9535C57.6421 72.3094 58.34 71.6274 59.001 70.9105L60.029 69.8595L60.937 68.7245C62.1788 67.2085 63.3125 65.6073 64.33 63.9325L65.716 61.3275C66.206 60.4675 66.493 59.5355 66.899 58.6395C67.09 58.1855 67.299 57.7395 67.473 57.2775L67.915 55.8435C68.19 54.8875 68.56 53.9195 68.763 52.9755C69.2028 51.064 69.5228 49.1269 69.721 47.1755Z" fill="black"/>
</g>
</g>
<g style="mix-blend-mode:screen" opacity="0.7">
<g style="mix-blend-mode:screen" opacity="0.7">
<path d="M75.2142 16.4063C75.1142 16.2873 74.9632 16.1063 74.7602 15.8693C74.3892 15.3793 73.7602 14.7103 73.0032 13.8383C70.8357 11.5243 68.4056 9.47113 65.7622 7.72038C64.0197 6.55436 62.1857 5.53135 60.2782 4.66137C58.1606 3.71157 55.966 2.94379 53.7182 2.36637C53.1442 2.21137 52.4992 2.09237 51.8892 1.94837C51.3282 1.81737 50.6832 1.76938 50.0892 1.66238C49.4682 1.57838 48.8582 1.49438 48.2372 1.39938C47.6042 1.32738 46.9832 1.31537 46.3492 1.26737C45.7162 1.24337 45.0832 1.18438 44.4492 1.16738L42.5262 1.23838C41.245 1.27461 39.9677 1.39452 38.7022 1.59738C38.0665 1.66327 37.4358 1.77084 36.8142 1.91938L34.9262 2.31938C33.6952 2.62938 32.4772 3.06038 31.2702 3.43038C30.1112 3.93038 28.9162 4.33838 27.8052 4.88838C27.2552 5.16338 26.7052 5.44937 26.1562 5.72437L25.3312 6.14236L24.5672 6.62039C23.5512 7.27839 22.5112 7.85137 21.5912 8.58037C19.7902 9.88416 18.1071 11.3434 16.5612 12.9413C15.8353 13.6486 15.1528 14.399 14.5172 15.1883C13.9082 15.9523 13.3232 16.6933 12.7732 17.3883C12.2732 18.1413 11.8052 18.8343 11.3512 19.5033C10.4792 20.8303 9.89317 22.0963 9.30817 23.1033C8.48317 24.9673 7.97017 26.1263 7.85017 26.3773C7.84348 26.3978 7.83546 26.4179 7.82617 26.4373C7.82617 26.4373 7.85017 26.3533 7.89817 26.2093C10.0874 19.4806 14.1145 13.4981 19.5246 8.93754C24.9347 4.37695 31.5123 1.41999 38.5144 0.400669C45.5165 -0.61865 52.6642 0.340274 59.15 3.16914C65.6358 5.998 71.2014 10.584 75.2182 16.4093L75.2142 16.4063Z" fill="white"/>
</g>
</g>
<defs>
<linearGradient id="paint0_linear_2_24" x1="22.9457" y1="81.2348" x2="48.8127" y2="21.4457" gradientUnits="userSpaceOnUse">
<stop stop-color="#D43B3B"/>
</linearGradient>
<linearGradient id="paint1_linear_2_24" x1="48.084" y1="4.70028" x2="33.6147" y2="60.2801" gradientUnits="userSpaceOnUse">
<stop offset="0.864583" stop-color="#FCF200"/>
</linearGradient>
</defs>
</svg>
